# Blender v2.57 (sub 0) OBJ File: ''
# www.blender.org
mtllib Triangles.mtl
o Cube
v 1.000000 -1.000000 -1.000000
v 1.000000 -1.000000 1.000000
v -1.000000 -1.000000 1.000000
v -1.000000 -1.000000 -1.000000
v 1.000000 1.000000 -1.000000
v -0.000001 1.000000 1.000000
v -1.000000 1.000000 -1.000000
vn 0.000000 1.000000 -0.000000
vn -0.000000 -0.000000 1.000000
vn 0.000000 0.000000 -1.000000
vn -0.816497 0.408248 0.408248
vn -1.000000 -0.000000 -0.000000
vn 1.000000 -0.000000 0.000000
vn 0.816496 0.408248 0.408249
vn -0.000000 -1.000000 0.000000
usemtl Material
s off
f 5//1 7//1 6//1
f 2//2 6//2 3//2
f 5//3 1//3 4//3
f 5//3 4//3 7//3
f 3//4 6//4 7//4
f 3//5 7//5 4//5
f 1//6 5//6 2//6
f 5//7 6//7 2//7
f 1//8 2//8 3//8
f 1//8 3//8 4//8
