# Blender v2.57 (sub 1) OBJ File: 'vrata.blend'
# www.blender.org
mtllib vrata_levo2.mtl
o Cube
v -16.798248 5.561196 -9.094069
v -16.698248 5.561196 -9.094069
v -16.698248 5.561196 -8.644070
v -16.798248 5.561196 -8.644070
v -16.798248 5.561196 -8.544069
v -16.698248 5.561196 -8.544069
v -17.348248 5.561196 -8.644070
v -17.348248 5.561196 -8.544069
v -17.448248 5.561196 -8.644070
v -17.448248 5.561196 -8.544069
v -17.348248 5.561196 -8.744069
v -17.448248 5.561196 -8.744069
v -17.448248 5.561196 -8.844069
v -17.348248 5.561196 -8.844069
v -17.748249 5.561196 -8.744069
v -17.748249 5.561196 -8.844069
v -17.998249 5.561196 -8.744069
v -17.998249 5.561196 -8.844069
v -17.748249 5.561196 -6.894070
v -17.998249 5.561196 -6.894070
v -17.748249 5.561196 -6.644070
v -17.998249 5.561196 -6.644070
v -19.698248 5.561196 -6.894070
v -19.698248 5.561196 -6.644070
v -19.948248 5.561196 -6.894070
v -19.948248 5.561196 -6.644070
v -19.698248 5.561196 -5.794069
v -19.948248 5.561196 -5.794069
v -19.698248 5.561196 -5.544069
v -19.948248 5.561196 -5.544069
v -20.098248 5.561196 -5.544069
v -20.098248 5.561196 -5.794069
v -21.548248 5.561196 -8.144070
v -21.648247 5.561196 -8.144070
v -21.548248 5.561196 -8.544069
v -21.648247 5.561196 -8.544069
v -21.648247 5.561196 -8.644070
v -21.548248 5.561196 -8.644070
v -19.748249 5.561196 -8.644070
v -19.748249 5.561196 -8.544069
v -41.548248 5.561196 12.405930
v -32.348248 5.561196 13.855930
v -32.348248 5.561196 13.905930
v -32.198246 5.561196 13.905930
v -32.198246 5.561196 13.855930
v -11.298248 5.561196 33.405930
v -11.298248 5.561196 33.505928
v -8.048248 5.561196 33.505928
v -8.048248 5.561196 33.405930
v -22.248247 5.561196 33.655930
v -22.248247 5.561196 33.455925
v -22.448248 5.561196 33.655930
v -22.448248 5.561196 33.455925
v -22.448248 6.911197 33.655930
v -22.248247 6.911197 33.655930
v -22.448248 6.911197 33.455925
v -22.248247 6.911197 33.455925
v -11.298248 6.911197 33.405930
v -8.048248 6.911197 33.405930
v -8.048248 6.911197 33.505928
v -11.298248 6.911197 33.505928
v -32.348248 6.911197 13.855930
v -32.198246 6.911197 13.855930
v -32.198246 6.911197 13.905930
v -32.348248 6.911197 13.905930
v -21.548248 6.911197 -8.644070
v -19.748249 6.911197 -8.644070
v -19.748249 6.911197 -8.544069
v -21.548248 6.911197 -8.544069
v -21.648247 6.911197 -8.544069
v -21.648247 6.911197 -8.644070
v -21.648247 6.911197 -8.144070
v -21.548248 6.911197 -8.144070
v -19.948248 6.911197 -5.544069
v -20.098248 6.911197 -5.544069
v -20.098248 6.911197 -5.794069
v -19.948248 6.911197 -5.794069
v -19.698248 6.911197 -5.794069
v -19.698248 6.911197 -5.544069
v -17.748249 6.911197 -8.744069
v -17.998249 6.911197 -8.744069
v -17.998249 6.911197 -8.844069
v -17.748249 6.911197 -8.844069
v -17.448248 6.911197 -8.744069
v -17.448248 6.911197 -8.844069
v -17.348248 6.911197 -8.844069
v -17.348248 6.911197 -8.744069
v -17.448248 6.911197 -8.644070
v -17.348248 6.911197 -8.644070
v -17.348248 6.911197 -8.544069
v -17.448248 6.911197 -8.544069
v -16.798248 6.911197 -8.544069
v -16.798248 6.911197 -8.644070
v -16.698248 6.911197 -8.644070
v -16.698248 6.911197 -8.544069
v -16.698248 6.911197 -9.094069
v -16.798248 6.911197 -9.094069
v -9.898249 6.911197 12.705931
v -8.848248 6.911197 5.955930
v -13.898249 5.961196 -9.294069
v -12.398249 5.961196 -9.294069
v -12.148249 5.961196 -9.294069
v -10.748249 5.961196 -9.294069
v -10.498249 5.961196 -9.294069
v -9.098248 5.961196 -9.294069
v -9.098248 5.961196 -9.244069
v -10.498249 5.961196 -9.244069
v -10.748249 5.961196 -9.244069
v -12.148249 5.961196 -9.244069
v -12.398249 5.961196 -9.244069
v -13.898249 5.961196 -9.244069
v -13.898249 6.561196 -9.244069
v -12.398249 6.561196 -9.244069
v -12.148249 6.561196 -9.244069
v -10.748249 6.561196 -9.244069
v -9.098248 6.561196 -9.244069
v -10.498249 6.561196 -9.244069
v -10.498249 6.561196 -9.294069
v -9.098248 6.561196 -9.294069
v -12.148249 6.561196 -9.294069
v -10.748249 6.561196 -9.294069
v -12.398249 6.561196 -9.294069
v -13.898249 6.561196 -9.294069
v -19.699999 5.961196 -6.648803
v -19.699999 5.961196 -5.798803
v -19.949999 5.961196 -5.798803
v -19.949999 5.961196 -6.648803
v -19.949999 5.961196 -6.898803
v -19.699999 5.961196 -6.898803
v -18.000000 5.961196 -6.648803
v -18.000000 5.961196 -6.898803
v -17.998249 5.561196 -7.600801
v -17.748249 5.561196 -7.600801
v -17.748249 6.911197 -7.600801
v -17.998249 6.911197 -7.600801
v -17.998249 5.961196 -7.600801
v -17.748249 5.961196 -7.600801
v -17.748249 5.961196 -6.894070
v -17.998249 5.961196 -6.894070
v -17.748249 5.961196 -6.644070
v -17.998249 5.961196 -6.644070
v -31.148247 6.911197 16.048042
v -31.148247 6.911197 15.950212
v -29.748245 6.911197 16.048042
v -29.748245 6.911197 15.950212
v -27.548248 6.911197 15.950212
v -26.398249 6.911197 15.950212
v -26.398249 6.911197 18.111147
v -26.398249 6.911197 18.189411
v -27.548248 6.911197 18.111147
v -27.548248 6.911197 18.189411
v -29.748245 6.911197 18.111147
v -29.748245 6.911197 18.189411
v -31.148247 6.911197 18.111147
v -31.148247 6.911197 18.189411
v -31.148247 5.861197 18.111147
v -31.148247 5.861197 18.189411
v -29.748245 5.861197 18.111147
v -29.748245 5.861197 18.189411
v -27.548248 5.561196 18.189411
v -27.548248 5.561196 18.111147
v -26.398249 5.561196 18.189411
v -26.398249 5.561196 18.111147
v -26.398249 5.561196 15.950212
v -27.548248 5.561196 15.950212
v -29.748245 5.861197 16.048042
v -29.748245 5.861197 15.950212
v -31.148247 5.861197 16.048042
v -31.148247 5.861197 15.950212
v -58.103714 14.874762 50.540581
v -58.103714 14.874762 -49.459419
v 41.896286 14.874762 -49.459419
v 41.896286 14.874762 50.540581
v -17.998249 5.990353 -6.894070
v -17.998249 5.990353 -6.644070
v -17.748249 5.990353 -6.644070
v -17.748249 5.990353 -6.894070
v -17.998249 5.990353 -7.600801
v -17.748249 5.990353 -7.600801
v -18.000000 5.990353 -6.648803
v -18.000000 5.990353 -6.898803
v -19.699999 5.990353 -6.898803
v -19.699999 5.990353 -6.648803
v -19.949999 5.990353 -6.898803
v -19.949999 5.990353 -6.648803
v -19.949999 5.990353 -5.798803
v -19.699999 5.990353 -5.798803
v -11.299120 6.860809 10.031576
v -11.307528 6.860809 10.031576
v -11.299120 5.611584 10.031576
v -11.307528 5.611584 10.031576
v -11.299120 5.564548 10.031576
v -11.307528 5.564548 10.031576
v -11.307528 6.914548 10.031576
v -11.299120 6.914548 10.031576
v -11.279119 6.860809 9.553136
v -11.279119 6.860809 9.503136
v -11.307528 6.860809 9.503136
v -11.279119 6.860809 9.503136
v -11.299120 6.860809 9.553136
v -11.307528 6.860809 9.553136
v -11.299120 6.860809 10.048179
v -11.307528 6.860809 10.048179
v -11.279119 5.611584 9.553136
v -11.279119 5.611584 9.503136
v -11.307528 5.611584 9.503136
v -11.279119 5.611584 9.503136
v -11.299120 5.611584 9.553136
v -11.307528 5.611584 9.553136
v -11.299120 5.611584 10.048179
v -11.307528 5.611584 10.048179
v -11.279119 5.564548 9.553136
v -11.279119 5.564548 9.503136
v -11.279119 6.914548 9.503136
v -11.279119 6.914548 9.553136
v -11.307528 6.914548 9.503136
v -11.279119 6.914548 9.503136
v -11.279119 5.564548 9.503136
v -11.307528 5.564548 9.503136
v -11.299120 5.564548 9.553136
v -11.307528 5.564548 9.553136
v -11.299120 6.914548 9.553136
v -11.307528 6.914548 9.553136
v -11.299120 5.564548 10.048179
v -11.307528 5.564548 10.048179
v -11.307528 6.914548 10.048179
v -11.299120 6.914548 10.048179
v -9.957193 6.914548 10.048179
v -9.965601 6.914548 10.048179
v -9.965601 5.564548 10.048179
v -9.957193 5.564548 10.048179
v -9.965601 6.914548 9.553136
v -9.957193 6.914548 9.553136
v -9.965601 5.564548 9.553136
v -9.957193 5.564548 9.553136
v -9.965601 5.564548 9.503136
v -9.937193 5.564548 9.503136
v -9.937193 6.914548 9.503136
v -9.965601 6.914548 9.503136
v -9.937193 6.914548 9.553136
v -9.937193 6.914548 9.503136
v -9.937193 5.564548 9.503136
v -9.937193 5.564548 9.553136
v -9.965601 5.611584 10.048179
v -9.957193 5.611584 10.048179
v -9.965601 5.611584 9.553136
v -9.957193 5.611584 9.553136
v -9.937193 5.611584 9.503136
v -9.965601 5.611584 9.503136
v -9.937193 5.611584 9.503136
v -9.937193 5.611584 9.553136
v -9.965601 6.860809 10.048179
v -9.957193 6.860809 10.048179
v -9.965601 6.860809 9.553136
v -9.957193 6.860809 9.553136
v -9.937193 6.860809 9.503136
v -9.965601 6.860809 9.503136
v -9.937193 6.860809 9.503136
v -9.937193 6.860809 9.553136
v -9.957193 6.914548 10.031576
v -9.965601 6.914548 10.031576
v -9.965601 5.564548 10.031576
v -9.957193 5.564548 10.031576
v -9.965601 5.611584 10.031576
v -9.957193 5.611584 10.031576
v -9.965601 6.860809 10.031576
v -9.957193 6.860809 10.031576
vn 1.000000 0.000000 0.000000
vn 0.000000 -0.000000 1.000000
vn 0.000000 0.000000 0.000000
vn 0.000000 0.000000 -1.000000
vn -1.000000 0.000000 0.000000
vn -0.000000 -1.000000 -0.000000
vn 0.000000 1.000000 0.000000
vn 0.999990 0.004377 -0.000000
vn 0.000000 -0.011832 -0.999930
vn 0.000000 0.011832 0.999930
vn -0.999990 -0.004377 -0.000000
vn 0.000000 0.011834 0.999930
usemtl Material
s off
f 259//1 251//1 250//1
f 259//1 250//1 258//1
f 240//1 259//1 258//1
f 240//1 258//1 241//1
f 255//2 247//2 251//2
f 255//2 251//2 259//2
f 233//2 255//2 259//2
f 233//2 259//2 240//2
f 256//3 238//3 241//3
f 256//3 241//3 258//3
f 248//3 256//3 258//3
f 248//3 258//3 250//3
f 256//4 248//4 249//4
f 256//4 249//4 257//4
f 238//4 256//4 257//4
f 238//4 257//4 239//4
f 254//5 232//5 239//5
f 254//5 239//5 257//5
f 246//5 254//5 257//5
f 246//5 257//5 249//5
f 251//1 243//1 242//1
f 251//1 242//1 250//1
f 247//2 235//2 243//2
f 247//2 243//2 251//2
f 237//3 248//3 250//3
f 237//3 250//3 242//3
f 248//4 237//4 236//4
f 248//4 236//4 249//4
f 234//5 246//5 249//5
f 234//5 249//5 236//5
f 235//6 237//6 243//6
f 237//3 242//3 243//3
f 238//7 233//7 240//7
f 238//3 240//3 241//3
f 232//7 233//7 239//7
f 233//7 238//7 239//7
f 235//6 234//6 236//6
f 235//6 236//6 237//6
f 220//6 221//6 219//6
f 220//6 219//6 218//6
f 223//7 222//7 216//7
f 222//7 217//7 216//7
f 217//7 222//7 215//7
f 217//3 215//3 214//3
f 220//6 218//6 212//6
f 218//3 213//3 212//3
f 221//5 209//5 206//5
f 221//5 206//5 219//5
f 207//4 218//4 219//4
f 207//4 219//4 206//4
f 218//3 207//3 205//3
f 218//3 205//3 213//3
f 208//2 220//2 212//2
f 208//2 212//2 204//2
f 204//1 212//1 213//1
f 204//1 213//1 205//1
f 209//5 201//5 198//5
f 209//5 198//5 206//5
f 201//5 223//5 216//5
f 201//5 216//5 198//5
f 217//4 199//4 198//4
f 217//4 198//4 216//4
f 199//4 207//4 206//4
f 199//4 206//4 198//4
f 207//3 199//3 197//3
f 207//3 197//3 205//3
f 199//3 217//3 214//3
f 199//3 214//3 197//3
f 222//2 200//2 196//2
f 222//2 196//2 215//2
f 200//2 208//2 204//2
f 200//2 204//2 196//2
f 215//1 196//1 197//1
f 215//1 197//1 214//1
f 196//1 204//1 205//1
f 196//1 205//1 197//1
f 20//5 22//5 141//5
f 20//5 141//5 139//5
f 22//2 21//2 140//2
f 22//2 140//2 141//2
f 21//1 19//1 138//1
f 21//1 138//1 140//1
f 132//5 20//5 139//5
f 132//5 139//5 136//5
f 19//1 133//1 137//1
f 19//1 137//1 138//1
f 133//4 132//4 136//4
f 133//4 136//4 137//4
f 81//7 135//7 134//7
f 81//7 134//7 80//7
f 135//5 81//5 132//5
f 81//5 17//5 132//5
f 80//1 134//1 133//1
f 80//1 133//1 15//1
f 17//7 132//7 133//7
f 17//7 133//7 15//7
f 22//8 20//8 130//8
f 20//8 131//8 130//8
f 20//9 23//9 131//9
f 23//9 129//9 131//9
f 24//10 22//10 130//10
f 24//10 130//10 124//10
f 23//9 25//9 129//9
f 25//9 128//9 129//9
f 25//11 26//11 127//11
f 25//11 127//11 128//11
f 26//11 28//11 126//11
f 26//11 126//11 127//11
f 28//12 27//12 125//12
f 28//12 125//12 126//12
f 27//8 24//8 125//8
f 24//8 124//8 125//8
f 96//7 97//7 93//7
f 96//7 93//7 94//7
f 94//7 93//7 92//7
f 94//7 92//7 95//7
f 92//7 93//7 89//7
f 92//7 89//7 90//7
f 90//7 89//7 88//7
f 90//7 88//7 91//7
f 88//7 89//7 87//7
f 88//7 87//7 84//7
f 84//7 87//7 86//7
f 84//7 86//7 85//7
f 84//7 85//7 83//7
f 84//7 83//7 80//7
f 80//7 83//7 82//7
f 80//7 82//7 81//7
f 78//7 77//7 74//7
f 78//7 74//7 79//7
f 74//7 77//7 76//7
f 74//7 76//7 75//7
f 72//7 73//7 69//7
f 72//7 69//7 70//7
f 70//7 69//7 66//7
f 70//7 66//7 71//7
f 66//7 69//7 68//7
f 66//7 68//7 67//7
f 62//7 65//7 64//7
f 62//7 64//7 63//7
f 58//7 61//7 60//7
f 58//7 60//7 59//7
f 55//7 57//7 56//7
f 55//7 56//7 54//7
f 1//4 97//4 96//4
f 1//4 96//4 2//4
f 97//5 1//5 4//5
f 97//5 4//5 93//5
f 2//1 96//1 94//1
f 2//1 94//1 3//1
f 6//2 95//2 92//2
f 6//2 92//2 5//2
f 3//1 94//1 95//1
f 3//1 95//1 6//1
f 7//4 89//4 93//4
f 7//4 93//4 4//4
f 5//2 92//2 90//2
f 5//2 90//2 8//2
f 10//5 91//5 88//5
f 10//5 88//5 9//5
f 8//2 90//2 91//2
f 8//2 91//2 10//2
f 11//1 87//1 89//1
f 11//1 89//1 7//1
f 9//5 88//5 84//5
f 9//5 84//5 12//5
f 14//1 86//1 87//1
f 14//1 87//1 11//1
f 13//4 85//4 86//4
f 13//4 86//4 14//4
f 16//4 83//4 85//4
f 16//4 85//4 13//4
f 12//2 84//2 80//2
f 12//2 80//2 15//2
f 18//4 82//4 83//4
f 18//4 83//4 16//4
f 17//5 81//5 82//5
f 17//5 82//5 18//5
f 29//2 79//2 74//2
f 29//2 74//2 30//2
f 27//1 78//1 79//1
f 27//1 79//1 29//1
f 32//4 76//4 77//4
f 32//4 77//4 28//4
f 31//5 75//5 76//5
f 31//5 76//5 32//5
f 30//2 74//2 75//2
f 30//2 75//2 31//2
f 33//2 73//2 72//2
f 33//2 72//2 34//2
f 35//1 69//1 73//1
f 35//1 73//1 33//1
f 34//5 72//5 70//5
f 34//5 70//5 36//5
f 37//4 71//4 66//4
f 37//4 66//4 38//4
f 36//5 70//5 71//5
f 36//5 71//5 37//5
f 40//2 68//2 69//2
f 40//2 69//2 35//2
f 39//1 67//1 68//1
f 39//1 68//1 40//1
f 38//4 66//4 67//4
f 38//4 67//4 39//4
f 43//5 65//5 62//5
f 43//5 62//5 42//5
f 44//2 64//2 65//2
f 44//2 65//2 43//2
f 45//1 63//1 64//1
f 45//1 64//1 44//1
f 42//4 62//4 63//4
f 42//4 63//4 45//4
f 47//5 61//5 58//5
f 47//5 58//5 46//5
f 48//2 60//2 61//2
f 48//2 61//2 47//2
f 49//1 59//1 60//1
f 49//1 60//1 48//1
f 46//4 58//4 59//4
f 46//4 59//4 49//4
f 51//1 57//1 55//1
f 51//1 55//1 50//1
f 53//4 56//4 57//4
f 53//4 57//4 51//4
f 52//5 54//5 56//5
f 52//5 56//5 53//5
f 50//2 55//2 54//2
f 50//2 54//2 52//2
f 50//7 51//7 53//7
f 50//7 53//7 52//7
f 46//7 47//7 48//7
f 46//7 48//7 49//7
f 42//7 43//7 44//7
f 42//7 44//7 45//7
f 38//7 35//7 40//7
f 38//7 40//7 39//7
f 36//7 35//7 38//7
f 36//7 38//7 37//7
f 34//7 33//7 35//7
f 34//7 35//7 36//7
f 30//7 28//7 32//7
f 30//7 32//7 31//7
f 27//7 28//7 30//7
f 27//7 30//7 29//7
f 15//7 16//7 18//7
f 15//7 18//7 17//7
f 12//7 13//7 16//7
f 12//7 16//7 15//7
f 12//7 11//7 14//7
f 12//7 14//7 13//7
f 9//7 7//7 11//7
f 9//7 11//7 12//7
f 8//7 7//7 9//7
f 8//7 9//7 10//7
f 5//7 4//7 7//7
f 5//7 7//7 8//7
f 3//7 4//7 5//7
f 3//7 5//7 6//7
f 2//7 1//7 4//7
f 2//7 4//7 3//7
usemtl glass
f 255//1 267//1 265//1
f 255//1 265//1 247//1
f 266//5 254//5 246//5
f 266//5 246//5 264//5
f 189//5 201//5 209//5
f 189//5 209//5 191//5
f 200//1 188//1 190//1
f 200//1 190//1 208//1
f 159//2 153//2 155//2
f 159//2 155//2 157//2
f 156//4 154//4 152//4
f 156//4 152//4 158//4
f 162//2 149//2 151//2
f 162//2 151//2 160//2
f 161//4 150//4 148//4
f 161//4 148//4 163//4
f 165//4 146//4 147//4
f 165//4 147//4 164//4
f 169//4 143//4 145//4
f 169//4 145//4 167//4
f 166//2 144//2 142//2
f 166//2 142//2 168//2
f 100//2 101//2 122//2
f 100//2 122//2 123//2
f 102//2 103//2 121//2
f 102//2 121//2 120//2
f 104//2 105//2 119//2
f 104//2 119//2 118//2
f 106//4 107//4 117//4
f 106//4 117//4 116//4
f 108//4 109//4 114//4
f 108//4 114//4 115//4
f 111//2 110//2 113//2
f 111//2 113//2 112//2
usemtl wood-table
f 183//7 185//7 186//7
f 183//7 186//7 187//7
f 183//7 182//7 184//7
f 183//7 184//7 185//7
f 180//7 181//7 182//7
f 180//7 182//7 183//7
f 178//7 174//7 177//7
f 178//7 177//7 179//7
f 177//7 174//7 175//7
f 177//7 175//7 176//7
f 125//1 124//1 183//1
f 125//1 183//1 187//1
f 126//2 125//2 187//2
f 126//2 187//2 186//2
f 127//5 126//5 186//5
f 127//5 186//5 185//5
f 128//5 127//5 185//5
f 128//5 185//5 184//5
f 129//4 128//4 184//4
f 129//4 184//4 182//4
f 124//2 130//2 180//2
f 124//2 180//2 183//2
f 131//4 129//4 182//4
f 131//4 182//4 181//4
f 130//1 131//1 181//1
f 130//1 181//1 180//1
f 137//4 136//4 178//4
f 137//4 178//4 179//4
f 138//1 137//1 179//1
f 138//1 179//1 177//1
f 136//5 139//5 174//5
f 136//5 174//5 178//5
f 140//1 138//1 177//1
f 140//1 177//1 176//1
f 141//2 140//2 176//2
f 141//2 176//2 175//2
f 139//5 141//5 175//5
f 139//5 175//5 174//5
usemtl chrome
f 260//1 228//1 253//1
f 260//1 253//1 267//1
f 233//1 260//1 267//1
f 233//1 267//1 255//1
f 267//1 253//1 245//1
f 267//1 245//1 265//1
f 261//5 232//5 254//5
f 261//5 254//5 266//5
f 229//5 261//5 266//5
f 229//5 266//5 252//5
f 252//5 266//5 264//5
f 252//5 264//5 244//5
f 265//1 245//1 231//1
f 265//1 231//1 263//1
f 247//1 265//1 263//1
f 247//1 263//1 235//1
f 264//5 246//5 234//5
f 264//5 234//5 262//5
f 244//5 264//5 262//5
f 244//5 262//5 230//5
f 263//6 231//6 230//6
f 263//6 230//6 262//6
f 235//6 263//6 262//6
f 235//6 262//6 234//6
f 260//7 233//7 232//7
f 260//7 232//7 261//7
f 228//7 260//7 261//7
f 228//7 261//7 229//7
f 253//2 228//2 229//2
f 253//2 229//2 252//2
f 245//2 253//2 252//2
f 245//2 252//2 244//2
f 231//2 245//2 244//2
f 231//2 244//2 230//2
f 224//2 210//2 211//2
f 224//2 211//2 225//2
f 210//2 202//2 203//2
f 210//2 203//2 211//2
f 202//2 227//2 226//2
f 202//2 226//2 203//2
f 227//7 195//7 194//7
f 227//7 194//7 226//7
f 195//7 222//7 223//7
f 195//7 223//7 194//7
f 220//6 192//6 193//6
f 220//6 193//6 221//6
f 192//6 224//6 225//6
f 192//6 225//6 193//6
f 211//5 191//5 193//5
f 211//5 193//5 225//5
f 191//5 209//5 221//5
f 191//5 221//5 193//5
f 208//1 190//1 192//1
f 208//1 192//1 220//1
f 190//1 210//1 224//1
f 190//1 224//1 192//1
f 203//5 189//5 191//5
f 203//5 191//5 211//5
f 226//5 194//5 189//5
f 226//5 189//5 203//5
f 194//5 223//5 201//5
f 194//5 201//5 189//5
f 188//1 202//1 210//1
f 188//1 210//1 190//1
f 222//1 195//1 188//1
f 222//1 188//1 200//1
f 195//1 227//1 202//1
f 195//1 202//1 188//1
f 170 171
f 171 172
f 172 173
f 170 173
