# Blender v2.57 (sub 0) OBJ File: 'faks.blend'
# www.blender.org
mtllib faks.mtl
o Cube
v 0.550000 -0.040000 3.410000
v 1.820000 -0.040000 3.410000
v 1.820000 -0.030000 3.410000
v 0.550000 -0.030000 3.410000
v 0.550000 -0.030000 3.390000
v 1.800000 -0.030000 3.390000
v 0.550000 -0.020000 3.390000
v 1.800000 -0.020000 3.390000
v 1.780000 -0.020000 3.370000
v 0.550000 -0.020000 3.370000
v 1.780000 -0.010000 3.370000
v 0.550000 -0.010000 3.370000
v 1.760000 -0.010000 3.350000
v 0.550000 -0.010000 3.350000
v 0.550000 0.000000 3.350000
v 1.760000 0.000000 3.350000
v 1.820000 -0.040000 3.250000
v 1.820000 -0.030000 3.250000
v 1.800000 -0.030000 3.250000
v 1.800000 -0.020000 3.250000
v 1.780000 -0.020000 3.250000
v 1.780000 -0.010000 3.250000
v 1.760000 -0.010000 3.250000
v 1.760000 0.000000 3.250000
v 0.550000 0.000000 3.250000
v 1.760000 0.000000 3.160000
v 2.200000 -0.040000 3.250000
v 2.200000 -0.040000 3.160000
v 1.745359 -0.040000 3.250000
v 0.550032 0.000000 3.160000
v 1.760000 -0.000000 -0.460859
v 0.550032 -0.000000 -0.460859
v 5.145402 -0.000000 -0.460859
v 5.145402 0.000000 3.160000
v 5.145402 -0.040000 3.160000
v 1.760000 -0.040000 3.160000
v 17.051458 -0.039999 17.070873
v -11.033529 -0.039999 17.070873
v 17.051458 -0.040001 -12.627100
v -11.033529 -0.040001 -12.627100
vn 0.000000 -0.000000 1.000000
vn -0.000000 -0.000000 -1.000000
vn 0.000000 -1.000000 0.000000
vn -1.000000 0.000000 0.000000
vn 0.090536 0.995893 -0.000000
vn 0.000000 1.000000 -0.000000
usemtl Material
s off
f 24//1 29//1 27//1
f 1//2 4//2 3//2
f 1//2 3//2 2//2
f 3//3 4//3 6//3
f 4//3 5//3 6//3
f 5//2 7//2 8//2
f 5//2 8//2 6//2
f 8//3 7//3 9//3
f 7//3 10//3 9//3
f 10//2 12//2 11//2
f 10//2 11//2 9//2
f 11//3 12//3 13//3
f 12//3 14//3 13//3
f 14//2 15//2 16//2
f 14//2 16//2 13//2
f 3//4 18//4 17//4
f 3//4 17//4 2//4
f 3//3 6//3 18//3
f 6//3 19//3 18//3
f 8//4 20//4 19//4
f 8//4 19//4 6//4
f 8//3 9//3 20//3
f 9//3 21//3 20//3
f 11//4 22//4 21//4
f 11//4 21//4 9//4
f 16//4 24//4 23//4
f 16//4 23//4 13//4
f 11//3 13//3 22//3
f 13//3 23//3 22//3
f 25//3 24//3 16//3
f 25//3 16//3 15//3
f 27//5 28//5 26//5
f 27//5 26//5 24//5
f 26//6 30//6 24//6
f 30//6 25//6 24//6
f 26//6 31//6 32//6
f 26//6 32//6 30//6
f 26//6 34//6 33//6
f 26//6 33//6 31//6
f 26//1 36//1 35//1
f 26//1 35//1 34//1
f 37//3 38//3 40//3
f 37//3 40//3 39//3
