# Blender v2.57 (sub 0) OBJ File: 'faks.blend'
# www.blender.org
mtllib faks3.mtl
o Cube
v -3.011690 -0.092472 4.798086
v 1.765631 -0.092472 4.798086
v 1.765631 -0.054855 4.798086
v -3.011690 -0.054855 4.798086
v -3.011690 -0.054855 4.722852
v 1.690398 -0.054855 4.722852
v -3.011690 -0.017238 4.722852
v 1.690398 -0.017238 4.722852
v 1.615164 -0.017238 4.647619
v -3.011690 -0.017238 4.647619
v 1.615164 0.020379 4.647619
v -3.011690 0.020379 4.647619
v 1.539931 0.020379 4.572386
v -3.011690 0.020379 4.572386
v -3.011690 0.057995 4.572386
v 1.539931 0.209238 4.572386
v 1.765631 -0.092472 4.196218
v 1.765631 -0.054855 4.196218
v 1.690398 -0.054855 4.196218
v 1.690398 -0.017238 4.196218
v 1.615164 -0.017238 4.196218
v 1.615164 0.020379 4.196218
v 1.539931 0.020379 4.196218
v 1.539931 0.057995 4.196218
v -3.011690 0.057995 4.196218
v 1.539931 0.057995 3.857668
v 3.195066 -0.092472 4.196218
v 3.195066 -0.092472 3.857668
v 1.484856 -0.092472 4.196218
v -3.011570 0.057995 3.857668
v 1.539931 0.057995 -9.762808
v -3.011570 0.057995 -9.762808
v 14.274700 0.057995 -9.762808
v 14.274700 0.057995 3.857668
v 14.274700 -0.092472 3.857668
v 1.539931 -0.092472 3.857668
v 59.061356 -0.092469 56.185787
v -46.585106 -0.092469 56.185787
v 59.061356 -0.092474 -55.528191
v -46.585106 -0.092474 -55.528191
v 1.539931 1.057995 3.857668
v 14.274700 1.057995 3.857668
v 1.539931 1.057995 3.254287
v 1.539931 0.057995 3.254287
v 0.539931 1.057995 3.254287
v 0.539931 0.057995 3.254287
v -0.260069 0.057995 3.254287
v -0.260069 1.057995 3.254287
v -1.160069 0.057995 3.254287
v -1.160069 1.057995 3.254287
v -1.985290 0.057995 3.254287
v -1.985290 1.057995 3.254287
v -3.010555 0.057995 3.254287
v -3.010555 1.057995 3.254287
v -1.985290 0.057995 2.803184
v -3.010555 0.057995 2.803184
v -3.010555 1.057995 2.803184
v -1.985290 1.057995 2.803184
v -0.260069 0.057995 2.803184
v -1.160069 0.057995 2.803184
v -0.260069 1.057995 2.803184
v -1.160069 1.057995 2.803184
v 1.539931 0.057995 2.803184
v 0.539931 0.057995 2.803184
v 1.539931 1.057995 2.803184
v 0.539931 1.057995 2.803184
v 1.658271 0.057995 2.803184
v 1.658271 1.057995 2.803184
v 1.938796 0.057995 3.163261
v 1.938796 1.057995 3.163261
v 2.240256 0.057995 2.899483
v 2.240256 1.057995 2.899483
v 1.959731 1.057995 2.518471
v 1.959731 0.057995 2.518471
v 1.959731 1.057995 2.418471
v 1.959731 0.057995 2.418471
v 2.359731 0.057995 2.418471
v 2.359731 1.057995 2.418471
v 2.359731 0.057995 2.118471
v 2.359731 1.057995 2.118471
v 2.359731 1.057995 1.818471
v 2.359731 0.057995 1.818471
v 1.959731 1.057995 1.818471
v 1.959731 0.057995 1.818471
v 1.959731 1.057995 -0.281529
v 1.959731 0.057995 -0.281529
v 2.359731 1.057995 -0.281529
v 2.359731 0.057995 -0.281529
v 2.359731 1.057995 -0.581529
v 2.359731 0.057995 -0.581529
v 2.359731 1.057995 -0.881529
v 2.359731 0.057995 -0.881529
v 1.959731 1.057995 -0.881529
v 1.959731 0.057995 -0.881529
v 1.959731 0.057995 -2.281529
v 1.959731 1.057995 -2.281529
v 2.059731 1.057995 -2.281529
v 2.059731 0.057995 -2.281529
v 2.059731 1.057995 -2.681529
v 2.059731 0.057995 -2.681529
v 2.059731 0.057995 -3.081529
v 2.059731 1.057995 -3.081529
v 1.959731 0.057995 -3.081529
v 1.959731 1.057995 -3.081529
v 1.959731 0.057995 -3.581529
v 1.959731 1.057995 -3.581529
v 2.059731 0.057995 -3.581529
v 2.059731 1.057995 -3.581529
v 2.059731 0.057995 -3.981529
v 2.059731 1.057995 -3.981529
v 1.959731 0.057995 -3.981529
v 1.959731 1.057995 -3.981529
v 1.959731 1.057995 -4.981529
v 1.959731 0.057995 -4.981529
v -3.010555 0.057995 2.147504
v -3.010555 1.057995 2.147504
v -3.010555 0.057995 -0.211647
v -3.010555 1.057995 -0.211647
v -3.010555 0.057995 -3.817288
v -3.010555 1.057995 -3.817288
v -3.197187 1.057995 -10.134823
v -3.197187 1.057995 3.855742
v 14.331470 1.057995 -10.134823
v 14.331470 1.057995 3.855742
vn 0.000000 -0.000000 1.000000
vn -0.000000 -0.000000 -1.000000
vn 0.000000 -1.000000 0.000000
vn -1.000000 0.000000 0.000000
vn 0.000000 -0.927815 0.373040
vn 0.033210 -0.999448 0.000000
vn 0.090536 0.995893 -0.000000
vn 0.000000 1.000000 -0.000000
vn 1.000000 0.000000 -0.000000
vn 0.788858 0.000000 -0.614576
vn -0.805278 0.000000 0.592897
usemtl Material
s off
f 24//1 29//1 27//1
f 1//2 4//2 3//2
f 1//2 3//2 2//2
f 3//3 4//3 6//3
f 4//3 5//3 6//3
f 5//2 7//2 8//2
f 5//2 8//2 6//2
f 8//3 7//3 9//3
f 7//3 10//3 9//3
f 10//2 12//2 11//2
f 10//2 11//2 9//2
f 11//3 12//3 13//3
f 12//3 14//3 13//3
f 14//2 15//2 16//2
f 14//2 16//2 13//2
f 3//4 18//4 17//4
f 3//4 17//4 2//4
f 3//3 6//3 18//3
f 6//3 19//3 18//3
f 8//4 20//4 19//4
f 8//4 19//4 6//4
f 8//3 9//3 20//3
f 9//3 21//3 20//3
f 11//4 22//4 21//4
f 11//4 21//4 9//4
f 16//4 24//4 23//4
f 16//4 23//4 13//4
f 11//3 13//3 22//3
f 13//3 23//3 22//3
f 25//5 24//5 16//5
f 25//6 16//6 15//6
f 27//7 28//7 26//7
f 27//7 26//7 24//7
f 26//8 30//8 24//8
f 30//8 25//8 24//8
f 26//8 31//8 32//8
f 26//8 32//8 30//8
f 26//8 34//8 33//8
f 26//8 33//8 31//8
f 26//1 36//1 35//1
f 26//1 35//1 34//1
f 37//3 38//3 40//3
f 37//3 40//3 39//3
f 26//1 34//1 42//1 41//1
f 26//4 41//4 43//4 44//4
f 44//1 43//1 45//1 46//1
f 47//1 48//1 50//1 49//1
f 51//1 52//1 54//1 53//1
f 51//3 53//3 56//3 55//3
f 53//4 54//4 57//4 56//4
f 54//8 52//8 58//8 57//8
f 47//3 49//3 60//3 59//3
f 50//8 48//8 61//8 62//8
f 44//3 46//3 64//3 63//3
f 45//8 43//8 65//8 66//8
f 43//9 44//9 63//9 65//9
f 55//2 56//2 57//2 58//2
f 59//2 60//2 62//2 61//2
f 63//2 64//2 66//2 65//2
f 63//2 65//2 68//2 67//2
f 67//10 68//10 70//10 69//10
f 71//11 72//11 73//11 74//11
f 74//4 73//4 75//4 76//4
f 76//2 75//2 78//2 77//2
f 77//4 78//4 80//4 79//4
f 82//1 81//1 83//1 84//1
f 84//4 83//4 85//4 86//4
f 86//2 85//2 87//2 88//2
f 88//4 87//4 89//4 90//4
f 92//1 91//1 93//1 94//1
f 94//4 93//4 96//4 95//4
f 95//2 96//2 97//2 98//2
f 98//4 97//4 99//4 100//4
f 101//1 102//1 104//1 103//1
f 103//4 104//4 106//4 105//4
f 105//2 106//2 108//2 107//2
f 109//1 110//1 112//1 111//1
f 111//4 112//4 113//4 114//4
f 57//9 56//9 115//9 116//9
f 117//4 118//4 120//4 119//4
f 121//8 122//8 124//8 123//8
