# Blender v2.57 (sub 1) OBJ File: 'star.blend'
# www.blender.org
mtllib star.mtl
o Mesh_Cube.001
v -0.070007 0.002060 0.000170
v -0.000008 0.002060 -0.400551
v -0.000008 -0.046894 -0.118015
v 0.069990 0.002060 0.000170
v -0.000008 -0.173000 -0.174886
v -0.000008 -0.116127 -0.048784
v -0.000008 -0.398663 0.000170
v -0.000008 -0.116127 0.049124
v -0.000008 -0.172998 0.175228
v -0.000008 -0.046894 0.118355
v -0.000008 0.002060 0.400891
v -0.000008 0.051014 0.118355
v -0.000008 0.177116 0.175228
v -0.000008 0.120243 0.049124
v -0.000008 0.402779 0.000170
v -0.000008 0.120243 -0.048784
v -0.000008 0.177116 -0.174888
v -0.000008 0.051014 -0.118015
vn -0.698954 -0.704667 -0.122095
vn 0.698959 -0.704662 -0.122094
vn -0.781259 0.256615 -0.569020
vn 0.781263 0.256612 -0.569015
vn -0.781256 -0.569016 0.256632
vn 0.781260 -0.569011 0.256630
vn -0.698956 -0.122095 -0.704665
vn 0.698961 -0.122094 -0.704660
vn -0.698956 -0.122095 0.704665
vn 0.698961 -0.122094 0.704660
vn -0.781262 -0.569014 -0.256619
vn 0.781266 -0.569009 -0.256617
vn -0.781253 0.256628 0.569022
vn 0.781257 0.256626 0.569017
vn -0.698954 -0.704667 0.122095
vn 0.698959 -0.704662 0.122094
vn -0.698954 0.704667 0.122095
vn 0.698959 0.704662 0.122094
vn -0.781251 -0.256632 0.569023
vn 0.781255 -0.256630 0.569018
vn -0.781245 0.569029 -0.256634
vn 0.781250 0.569025 -0.256632
vn -0.698953 0.122095 0.704669
vn 0.698958 0.122095 0.704664
vn -0.698953 0.122096 -0.704668
vn 0.698958 0.122095 -0.704664
vn -0.781245 0.569029 0.256634
vn 0.781250 0.569024 0.256632
vn -0.781251 -0.256632 -0.569023
vn 0.781255 -0.256630 -0.569018
vn -0.698954 0.704667 -0.122095
vn 0.698959 0.704662 -0.122094
usemtl star
s off
f 1//1 2//1 3//1
f 4//2 3//2 2//2
f 1//3 3//3 5//3
f 4//4 5//4 3//4
f 1//5 5//5 6//5
f 4//6 6//6 5//6
f 1//7 6//7 7//7
f 4//8 7//8 6//8
f 1//9 7//9 8//9
f 4//10 8//10 7//10
f 1//11 8//11 9//11
f 4//12 9//12 8//12
f 1//13 9//13 10//13
f 4//14 10//14 9//14
f 1//15 10//15 11//15
f 4//16 11//16 10//16
f 1//17 11//17 12//17
f 4//18 12//18 11//18
f 1//19 12//19 13//19
f 4//20 13//20 12//20
f 1//21 13//21 14//21
f 4//22 14//22 13//22
f 1//23 14//23 15//23
f 4//24 15//24 14//24
f 1//25 15//25 16//25
f 4//26 16//26 15//26
f 1//27 16//27 17//27
f 4//28 17//28 16//28
f 1//29 17//29 18//29
f 4//30 18//30 17//30
f 1//31 18//31 2//31
f 4//32 2//32 18//32
